<svg width="2767" height="489" viewBox="0 0 2767 489" fill="none" xmlns="http://www.w3.org/2000/svg">
<path d="M91.8642 9.38105L7.02308 94.2858C-2.34102 103.657 -2.34103 118.843 7.02308 128.214L302.35 423.763C314.068 435.489 333.075 435.489 344.793 423.763L640.12 128.214C649.484 118.843 649.484 103.657 640.12 94.2858L555.279 9.38106C549.277 3.37471 541.134 0 532.643 0H114.5C106.009 0 97.8661 3.3747 91.8642 9.38105Z" fill="#2AC20F"/>
<path fill-rule="evenodd" clip-rule="evenodd" d="M1547.36 45.1934C1598.95 45.1934 1632.5 76.8878 1632.5 141.52C1632.5 285.077 1552.34 364.624 1464.71 364.624C1439.85 364.624 1419.34 358.41 1403.81 349.088L1403.19 349.709L1378.07 489.001H1298.57L1383.3 50.7861H1450.42L1448.55 89.9385C1474.03 64.4586 1511.32 45.1934 1547.36 45.1934ZM1519.4 111.689C1497.65 111.689 1469.06 132.82 1441.09 168.864L1418.1 285.698C1431.77 295.642 1445.45 301.235 1464.09 301.235C1515.05 301.235 1549.23 225.416 1549.23 153.327C1549.23 125.362 1538.04 111.689 1519.4 111.689Z" fill="#4D4D4D"/>
<path fill-rule="evenodd" clip-rule="evenodd" d="M1828.26 42.3984C1891.65 42.3984 1929.56 72.2289 1929.56 121.324C1929.56 197.764 1866.17 234.43 1736.91 234.43C1735.66 242.509 1733.8 253.695 1733.8 261.774C1733.8 291.604 1749.96 302.79 1784.14 302.79C1815.21 302.79 1844.42 298.44 1876.11 289.739L1877.98 350.643C1848.77 359.964 1810.86 365.558 1770.46 365.558C1694.65 365.558 1654.25 341.321 1654.25 263.639C1654.25 246.859 1656.12 227.594 1659.84 207.707C1679.11 90.2511 1743.74 42.3985 1828.26 42.3984ZM1819.56 104.545C1782.89 104.545 1759.28 126.917 1746.85 181.605C1818.94 182.227 1854.98 167.312 1854.98 131.889C1854.98 114.488 1843.8 104.545 1819.56 104.545Z" fill="#4D4D4D"/>
<path d="M1100.28 244.679C1099.03 254.001 1097.79 262.701 1097.79 270.78C1097.79 289.424 1105.87 298.124 1124.51 298.124C1148.13 298.124 1181.69 276.373 1209.65 239.086L1245.7 50.7832H1327.11L1267.45 359.027H1200.33L1202.82 318.633C1175.47 344.734 1134.46 364.621 1091.58 364.621C1038.75 364.621 1013.89 337.898 1013.89 289.424C1013.89 278.859 1015.76 266.43 1018.24 252.758L1056.77 50.7832H1137.56L1100.28 244.679Z" fill="#4D4D4D"/>
<path d="M2241.25 244.679C2240 254.001 2238.76 262.701 2238.76 270.78C2238.76 289.424 2246.84 298.124 2265.48 298.124C2289.1 298.124 2322.66 276.373 2350.62 239.086L2386.67 50.7832H2468.08L2408.42 359.027H2341.3L2343.79 318.633C2316.44 344.734 2275.43 364.621 2232.55 364.621C2179.72 364.621 2154.86 337.898 2154.86 289.424C2154.86 278.859 2156.73 266.43 2159.22 252.758L2197.75 50.7832H2278.54L2241.25 244.679Z" fill="#4D4D4D"/>
<path d="M925.652 43.7949C948.646 43.795 971.64 46.9024 992.148 51.874L979.097 110.913C960.453 107.184 939.323 104.076 920.058 104.076C887.742 104.076 870.963 113.398 870.963 133.906C870.963 149.443 882.771 157.522 912.601 174.923C964.182 205.374 979.097 222.154 979.097 257.577C979.097 332.152 927.515 364.469 845.483 364.469C816.896 364.469 790.173 360.118 764.072 353.903L775.879 294.865C801.359 300.458 826.839 304.186 849.211 304.187C885.256 304.187 902.658 293 902.658 270.628C902.657 255.713 893.335 249.499 858.534 228.369C810.06 199.782 795.145 183.002 795.145 142.607C795.145 76.1112 839.269 43.7949 925.652 43.7949Z" fill="#4D4D4D"/>
<path d="M2688.39 46.1934C2741.84 46.1934 2766.07 72.916 2766.07 121.39C2766.07 131.954 2764.83 144.385 2762.34 158.057L2723.19 360.031H2642.4L2679.69 166.135C2681.55 156.813 2682.8 148.113 2682.8 140.034C2682.8 121.39 2674.72 112.689 2655.45 112.689C2631.84 112.689 2598.9 134.441 2570.31 171.729L2534.27 360.031H2453.48L2513.14 51.7861H2579.63L2577.77 92.1816C2605.11 66.0803 2646.13 46.1934 2688.39 46.1934Z" fill="#4D4D4D"/>
<path d="M2143.69 41C2150.52 41 2156.12 42.2428 2160.47 44.7285L2144.93 121.168C2139.34 118.682 2133.74 117.44 2127.53 117.439C2100.19 117.439 2074.08 136.083 2047.98 170.885L2011.94 358.566H1931.15L1990.81 50.3223H2057.3L2055.44 93.2031C2079.06 66.4804 2115.1 41.0002 2143.69 41Z" fill="#4D4D4D"/>
</svg>
